<?xml version="1.0" encoding="utf-8" standalone="no"?>
<!DOCTYPE svg PUBLIC "-//W3C//DTD SVG 1.1//EN"
  "http://www.w3.org/Graphics/SVG/1.1/DTD/svg11.dtd">
<svg xmlns:xlink="http://www.w3.org/1999/xlink" width="572.4pt" height="473.038125pt" viewBox="0 0 572.4 473.038125" xmlns="http://www.w3.org/2000/svg" version="1.1">
 <metadata>
  <rdf:RDF xmlns:dc="http://purl.org/dc/elements/1.1/" xmlns:cc="http://creativecommons.org/ns#" xmlns:rdf="http://www.w3.org/1999/02/22-rdf-syntax-ns#">
   <cc:Work>
    <dc:type rdf:resource="http://purl.org/dc/dcmitype/StillImage"/>
    <dc:date>2023-04-30T20:09:06.832442</dc:date>
    <dc:format>image/svg+xml</dc:format>
    <dc:creator>
     <cc:Agent>
      <dc:title>Matplotlib v3.7.1, https://matplotlib.org/</dc:title>
     </cc:Agent>
    </dc:creator>
   </cc:Work>
  </rdf:RDF>
 </metadata>
 <defs>
  <style type="text/css">*{stroke-linejoin: round; stroke-linecap: butt}</style>
 </defs>
 <g id="figure_1">
  <g id="patch_1">
   <path d="M 0 473.038125 
L 572.4 473.038125 
L 572.4 0 
L 0 0 
z
" style="fill: #ffffff"/>
  </g>
  <g id="axes_1">
   <g id="LineCollection_1">
    <path d="M 29.209767 117.581021 
L 95.99392 117.062024 
" clip-path="url(#pae7a057dcf)" style="fill: none; stroke: #000000"/>
    <path d="M 95.99392 117.062024 
L 132.321396 71.886205 
" clip-path="url(#pae7a057dcf)" style="fill: none; stroke: #000000"/>
    <path d="M 95.99392 117.062024 
L 132.009326 135.18855 
" clip-path="url(#pae7a057dcf)" style="fill: none; stroke: #000000"/>
    <path d="M 132.321396 71.886205 
L 132.009326 135.18855 
" clip-path="url(#pae7a057dcf)" style="fill: none; stroke: #000000"/>
    <path d="M 132.321396 71.886205 
L 183.581089 45.062248 
" clip-path="url(#pae7a057dcf)" style="fill: none; stroke: #000000"/>
    <path d="M 132.009326 135.18855 
L 195.195642 118.729475 
" clip-path="url(#pae7a057dcf)" style="fill: none; stroke: #000000"/>
    <path d="M 132.009326 135.18855 
L 119.399687 206.673906 
" clip-path="url(#pae7a057dcf)" style="fill: none; stroke: #000000"/>
    <path d="M 183.581089 45.062248 
L 195.195642 118.729475 
" clip-path="url(#pae7a057dcf)" style="fill: none; stroke: #000000"/>
    <path d="M 183.581089 45.062248 
L 227.495991 47.642927 
" clip-path="url(#pae7a057dcf)" style="fill: none; stroke: #000000"/>
    <path d="M 195.195642 118.729475 
L 227.495991 47.642927 
" clip-path="url(#pae7a057dcf)" style="fill: none; stroke: #000000"/>
    <path d="M 195.195642 118.729475 
L 238.826597 162.186724 
" clip-path="url(#pae7a057dcf)" style="fill: none; stroke: #000000"/>
    <path d="M 227.495991 47.642927 
L 227.495991 47.642927 
" clip-path="url(#pae7a057dcf)" style="fill: none; stroke: #000000"/>
   </g>
   <g id="patch_2">
    <path d="M 227.495991 31.481761 
C 232.699825 31.481761 232.699825 47.642927 227.495991 47.642927 
C 222.292157 47.642927 222.292157 31.481761 227.495991 31.481761 
" clip-path="url(#pae7a057dcf)" style="fill: none; stroke: #000000; stroke-linecap: round"/>
   </g>
   <g id="PathCollection_1">
    <defs>
     <path id="mc02db60602" d="M 0 8.660254 
C 2.296726 8.660254 4.499694 7.747755 6.123724 6.123724 
C 7.747755 4.499694 8.660254 2.296726 8.660254 0 
C 8.660254 -2.296726 7.747755 -4.499694 6.123724 -6.123724 
C 4.499694 -7.747755 2.296726 -8.660254 0 -8.660254 
C -2.296726 -8.660254 -4.499694 -7.747755 -6.123724 -6.123724 
C -7.747755 -4.499694 -8.660254 -2.296726 -8.660254 0 
C -8.660254 2.296726 -7.747755 4.499694 -6.123724 6.123724 
C -4.499694 7.747755 -2.296726 8.660254 0 8.660254 
z
" style="stroke: #1f78b4"/>
    </defs>
    <g clip-path="url(#pae7a057dcf)">
     <use xlink:href="#mc02db60602" x="29.209767" y="117.581021" style="fill: #1f78b4; stroke: #1f78b4"/>
     <use xlink:href="#mc02db60602" x="95.99392" y="117.062024" style="fill: #1f78b4; stroke: #1f78b4"/>
     <use xlink:href="#mc02db60602" x="132.321396" y="71.886205" style="fill: #1f78b4; stroke: #1f78b4"/>
     <use xlink:href="#mc02db60602" x="132.009326" y="135.18855" style="fill: #1f78b4; stroke: #1f78b4"/>
     <use xlink:href="#mc02db60602" x="183.581089" y="45.062248" style="fill: #1f78b4; stroke: #1f78b4"/>
     <use xlink:href="#mc02db60602" x="195.195642" y="118.729475" style="fill: #1f78b4; stroke: #1f78b4"/>
     <use xlink:href="#mc02db60602" x="227.495991" y="47.642927" style="fill: #1f78b4; stroke: #1f78b4"/>
     <use xlink:href="#mc02db60602" x="119.399687" y="206.673906" style="fill: #1f78b4; stroke: #1f78b4"/>
     <use xlink:href="#mc02db60602" x="238.826597" y="162.186724" style="fill: #1f78b4; stroke: #1f78b4"/>
    </g>
   </g>
   <g id="text_1">
    <!-- Graph type: 1 -->
    <g transform="translate(92.557244 16.318125) scale(0.12 -0.12)">
     <defs>
      <path id="DejaVuSans-47" d="M 3809 666 
L 3809 1919 
L 2778 1919 
L 2778 2438 
L 4434 2438 
L 4434 434 
Q 4069 175 3628 42 
Q 3188 -91 2688 -91 
Q 1594 -91 976 548 
Q 359 1188 359 2328 
Q 359 3472 976 4111 
Q 1594 4750 2688 4750 
Q 3144 4750 3555 4637 
Q 3966 4525 4313 4306 
L 4313 3634 
Q 3963 3931 3569 4081 
Q 3175 4231 2741 4231 
Q 1884 4231 1454 3753 
Q 1025 3275 1025 2328 
Q 1025 1384 1454 906 
Q 1884 428 2741 428 
Q 3075 428 3337 486 
Q 3600 544 3809 666 
z
" transform="scale(0.015625)"/>
      <path id="DejaVuSans-72" d="M 2631 2963 
Q 2534 3019 2420 3045 
Q 2306 3072 2169 3072 
Q 1681 3072 1420 2755 
Q 1159 2438 1159 1844 
L 1159 0 
L 581 0 
L 581 3500 
L 1159 3500 
L 1159 2956 
Q 1341 3275 1631 3429 
Q 1922 3584 2338 3584 
Q 2397 3584 2469 3576 
Q 2541 3569 2628 3553 
L 2631 2963 
z
" transform="scale(0.015625)"/>
      <path id="DejaVuSans-61" d="M 2194 1759 
Q 1497 1759 1228 1600 
Q 959 1441 959 1056 
Q 959 750 1161 570 
Q 1363 391 1709 391 
Q 2188 391 2477 730 
Q 2766 1069 2766 1631 
L 2766 1759 
L 2194 1759 
z
M 3341 1997 
L 3341 0 
L 2766 0 
L 2766 531 
Q 2569 213 2275 61 
Q 1981 -91 1556 -91 
Q 1019 -91 701 211 
Q 384 513 384 1019 
Q 384 1609 779 1909 
Q 1175 2209 1959 2209 
L 2766 2209 
L 2766 2266 
Q 2766 2663 2505 2880 
Q 2244 3097 1772 3097 
Q 1472 3097 1187 3025 
Q 903 2953 641 2809 
L 641 3341 
Q 956 3463 1253 3523 
Q 1550 3584 1831 3584 
Q 2591 3584 2966 3190 
Q 3341 2797 3341 1997 
z
" transform="scale(0.015625)"/>
      <path id="DejaVuSans-70" d="M 1159 525 
L 1159 -1331 
L 581 -1331 
L 581 3500 
L 1159 3500 
L 1159 2969 
Q 1341 3281 1617 3432 
Q 1894 3584 2278 3584 
Q 2916 3584 3314 3078 
Q 3713 2572 3713 1747 
Q 3713 922 3314 415 
Q 2916 -91 2278 -91 
Q 1894 -91 1617 61 
Q 1341 213 1159 525 
z
M 3116 1747 
Q 3116 2381 2855 2742 
Q 2594 3103 2138 3103 
Q 1681 3103 1420 2742 
Q 1159 2381 1159 1747 
Q 1159 1113 1420 752 
Q 1681 391 2138 391 
Q 2594 391 2855 752 
Q 3116 1113 3116 1747 
z
" transform="scale(0.015625)"/>
      <path id="DejaVuSans-68" d="M 3513 2113 
L 3513 0 
L 2938 0 
L 2938 2094 
Q 2938 2591 2744 2837 
Q 2550 3084 2163 3084 
Q 1697 3084 1428 2787 
Q 1159 2491 1159 1978 
L 1159 0 
L 581 0 
L 581 4863 
L 1159 4863 
L 1159 2956 
Q 1366 3272 1645 3428 
Q 1925 3584 2291 3584 
Q 2894 3584 3203 3211 
Q 3513 2838 3513 2113 
z
" transform="scale(0.015625)"/>
      <path id="DejaVuSans-20" transform="scale(0.015625)"/>
      <path id="DejaVuSans-74" d="M 1172 4494 
L 1172 3500 
L 2356 3500 
L 2356 3053 
L 1172 3053 
L 1172 1153 
Q 1172 725 1289 603 
Q 1406 481 1766 481 
L 2356 481 
L 2356 0 
L 1766 0 
Q 1100 0 847 248 
Q 594 497 594 1153 
L 594 3053 
L 172 3053 
L 172 3500 
L 594 3500 
L 594 4494 
L 1172 4494 
z
" transform="scale(0.015625)"/>
      <path id="DejaVuSans-79" d="M 2059 -325 
Q 1816 -950 1584 -1140 
Q 1353 -1331 966 -1331 
L 506 -1331 
L 506 -850 
L 844 -850 
Q 1081 -850 1212 -737 
Q 1344 -625 1503 -206 
L 1606 56 
L 191 3500 
L 800 3500 
L 1894 763 
L 2988 3500 
L 3597 3500 
L 2059 -325 
z
" transform="scale(0.015625)"/>
      <path id="DejaVuSans-65" d="M 3597 1894 
L 3597 1613 
L 953 1613 
Q 991 1019 1311 708 
Q 1631 397 2203 397 
Q 2534 397 2845 478 
Q 3156 559 3463 722 
L 3463 178 
Q 3153 47 2828 -22 
Q 2503 -91 2169 -91 
Q 1331 -91 842 396 
Q 353 884 353 1716 
Q 353 2575 817 3079 
Q 1281 3584 2069 3584 
Q 2775 3584 3186 3129 
Q 3597 2675 3597 1894 
z
M 3022 2063 
Q 3016 2534 2758 2815 
Q 2500 3097 2075 3097 
Q 1594 3097 1305 2825 
Q 1016 2553 972 2059 
L 3022 2063 
z
" transform="scale(0.015625)"/>
      <path id="DejaVuSans-3a" d="M 750 794 
L 1409 794 
L 1409 0 
L 750 0 
L 750 794 
z
M 750 3309 
L 1409 3309 
L 1409 2516 
L 750 2516 
L 750 3309 
z
" transform="scale(0.015625)"/>
      <path id="DejaVuSans-31" d="M 794 531 
L 1825 531 
L 1825 4091 
L 703 3866 
L 703 4441 
L 1819 4666 
L 2450 4666 
L 2450 531 
L 3481 531 
L 3481 0 
L 794 0 
L 794 531 
z
" transform="scale(0.015625)"/>
     </defs>
     <use xlink:href="#DejaVuSans-47"/>
     <use xlink:href="#DejaVuSans-72" x="77.490234"/>
     <use xlink:href="#DejaVuSans-61" x="118.603516"/>
     <use xlink:href="#DejaVuSans-70" x="179.882812"/>
     <use xlink:href="#DejaVuSans-68" x="243.359375"/>
     <use xlink:href="#DejaVuSans-20" x="306.738281"/>
     <use xlink:href="#DejaVuSans-74" x="338.525391"/>
     <use xlink:href="#DejaVuSans-79" x="377.734375"/>
     <use xlink:href="#DejaVuSans-70" x="436.914062"/>
     <use xlink:href="#DejaVuSans-65" x="500.390625"/>
     <use xlink:href="#DejaVuSans-3a" x="561.914062"/>
     <use xlink:href="#DejaVuSans-20" x="595.605469"/>
     <use xlink:href="#DejaVuSans-31" x="627.392578"/>
    </g>
   </g>
  </g>
  <g id="axes_2">
   <g id="LineCollection_2">
    <path d="M 419.746475 206.42391 
L 422.462234 169.072172 
" clip-path="url(#p9a6259439d)" style="fill: none; stroke: #000000"/>
    <path d="M 422.462234 169.072172 
L 381.275388 124.92304 
" clip-path="url(#p9a6259439d)" style="fill: none; stroke: #000000"/>
    <path d="M 422.462234 169.072172 
L 443.19222 132.171072 
" clip-path="url(#p9a6259439d)" style="fill: none; stroke: #000000"/>
    <path d="M 381.275388 124.92304 
L 381.62857 68.905977 
" clip-path="url(#p9a6259439d)" style="fill: none; stroke: #000000"/>
    <path d="M 381.275388 124.92304 
L 443.19222 132.171072 
" clip-path="url(#p9a6259439d)" style="fill: none; stroke: #000000"/>
    <path d="M 381.62857 68.905977 
L 333.573403 47.051478 
" clip-path="url(#p9a6259439d)" style="fill: none; stroke: #000000"/>
    <path d="M 381.62857 68.905977 
L 467.25582 68.470759 
" clip-path="url(#p9a6259439d)" style="fill: none; stroke: #000000"/>
    <path d="M 443.19222 132.171072 
L 467.25582 68.470759 
" clip-path="url(#p9a6259439d)" style="fill: none; stroke: #000000"/>
    <path d="M 467.25582 68.470759 
L 481.542389 39.81234 
" clip-path="url(#p9a6259439d)" style="fill: none; stroke: #000000"/>
    <path d="M 467.25582 68.470759 
L 543.190233 57.067925 
" clip-path="url(#p9a6259439d)" style="fill: none; stroke: #000000"/>
   </g>
   <g id="PathCollection_2">
    <g clip-path="url(#p9a6259439d)">
     <use xlink:href="#mc02db60602" x="419.746475" y="206.42391" style="fill: #1f78b4; stroke: #1f78b4"/>
     <use xlink:href="#mc02db60602" x="422.462234" y="169.072172" style="fill: #1f78b4; stroke: #1f78b4"/>
     <use xlink:href="#mc02db60602" x="381.275388" y="124.92304" style="fill: #1f78b4; stroke: #1f78b4"/>
     <use xlink:href="#mc02db60602" x="381.62857" y="68.905977" style="fill: #1f78b4; stroke: #1f78b4"/>
     <use xlink:href="#mc02db60602" x="333.573403" y="47.051478" style="fill: #1f78b4; stroke: #1f78b4"/>
     <use xlink:href="#mc02db60602" x="443.19222" y="132.171072" style="fill: #1f78b4; stroke: #1f78b4"/>
     <use xlink:href="#mc02db60602" x="467.25582" y="68.470759" style="fill: #1f78b4; stroke: #1f78b4"/>
     <use xlink:href="#mc02db60602" x="481.542389" y="39.81234" style="fill: #1f78b4; stroke: #1f78b4"/>
     <use xlink:href="#mc02db60602" x="543.190233" y="57.067925" style="fill: #1f78b4; stroke: #1f78b4"/>
    </g>
   </g>
   <g id="text_2">
    <!-- Graph type: 2 -->
    <g transform="translate(396.920881 16.318125) scale(0.12 -0.12)">
     <defs>
      <path id="DejaVuSans-32" d="M 1228 531 
L 3431 531 
L 3431 0 
L 469 0 
L 469 531 
Q 828 903 1448 1529 
Q 2069 2156 2228 2338 
Q 2531 2678 2651 2914 
Q 2772 3150 2772 3378 
Q 2772 3750 2511 3984 
Q 2250 4219 1831 4219 
Q 1534 4219 1204 4116 
Q 875 4013 500 3803 
L 500 4441 
Q 881 4594 1212 4672 
Q 1544 4750 1819 4750 
Q 2544 4750 2975 4387 
Q 3406 4025 3406 3419 
Q 3406 3131 3298 2873 
Q 3191 2616 2906 2266 
Q 2828 2175 2409 1742 
Q 1991 1309 1228 531 
z
" transform="scale(0.015625)"/>
     </defs>
     <use xlink:href="#DejaVuSans-47"/>
     <use xlink:href="#DejaVuSans-72" x="77.490234"/>
     <use xlink:href="#DejaVuSans-61" x="118.603516"/>
     <use xlink:href="#DejaVuSans-70" x="179.882812"/>
     <use xlink:href="#DejaVuSans-68" x="243.359375"/>
     <use xlink:href="#DejaVuSans-20" x="306.738281"/>
     <use xlink:href="#DejaVuSans-74" x="338.525391"/>
     <use xlink:href="#DejaVuSans-79" x="377.734375"/>
     <use xlink:href="#DejaVuSans-70" x="436.914062"/>
     <use xlink:href="#DejaVuSans-65" x="500.390625"/>
     <use xlink:href="#DejaVuSans-3a" x="561.914062"/>
     <use xlink:href="#DejaVuSans-20" x="595.605469"/>
     <use xlink:href="#DejaVuSans-32" x="627.392578"/>
    </g>
   </g>
  </g>
  <g id="axes_3">
   <g id="LineCollection_3">
    <path d="M 94.880119 281.73234 
L 109.854704 315.833515 
" clip-path="url(#pc12ce051aa)" style="fill: none; stroke: #000000"/>
    <path d="M 109.854704 315.833515 
L 153.610851 344.903323 
" clip-path="url(#pc12ce051aa)" style="fill: none; stroke: #000000"/>
    <path d="M 109.854704 315.833515 
L 105.98482 339.809232 
" clip-path="url(#pc12ce051aa)" style="fill: none; stroke: #000000"/>
    <path d="M 105.98482 339.809232 
L 71.65839 375.82703 
" clip-path="url(#pc12ce051aa)" style="fill: none; stroke: #000000"/>
    <path d="M 105.98482 339.809232 
L 153.610851 344.903323 
" clip-path="url(#pc12ce051aa)" style="fill: none; stroke: #000000"/>
    <path d="M 105.98482 339.809232 
L 125.515347 382.309282 
" clip-path="url(#pc12ce051aa)" style="fill: none; stroke: #000000"/>
    <path d="M 71.65839 375.82703 
L 125.515347 382.309282 
" clip-path="url(#pc12ce051aa)" style="fill: none; stroke: #000000"/>
    <path d="M 71.65839 375.82703 
L 29.209767 390.140227 
" clip-path="url(#pc12ce051aa)" style="fill: none; stroke: #000000"/>
    <path d="M 153.610851 344.903323 
L 178.874146 318.631723 
" clip-path="url(#pc12ce051aa)" style="fill: none; stroke: #000000"/>
    <path d="M 153.610851 344.903323 
L 125.515347 382.309282 
" clip-path="url(#pc12ce051aa)" style="fill: none; stroke: #000000"/>
    <path d="M 153.610851 344.903323 
L 181.090891 378.981449 
" clip-path="url(#pc12ce051aa)" style="fill: none; stroke: #000000"/>
    <path d="M 125.515347 382.309282 
L 159.404653 404.559152 
" clip-path="url(#pc12ce051aa)" style="fill: none; stroke: #000000"/>
    <path d="M 181.090891 378.981449 
L 159.404653 404.559152 
" clip-path="url(#pc12ce051aa)" style="fill: none; stroke: #000000"/>
    <path d="M 181.090891 378.981449 
L 206.977144 420.416834 
" clip-path="url(#pc12ce051aa)" style="fill: none; stroke: #000000"/>
    <path d="M 159.404653 404.559152 
L 206.977144 420.416834 
" clip-path="url(#pc12ce051aa)" style="fill: none; stroke: #000000"/>
    <path d="M 206.977144 420.416834 
L 238.826597 448.34391 
" clip-path="url(#pc12ce051aa)" style="fill: none; stroke: #000000"/>
   </g>
   <g id="PathCollection_3">
    <g clip-path="url(#pc12ce051aa)">
     <use xlink:href="#mc02db60602" x="94.880119" y="281.73234" style="fill: #1f78b4; stroke: #1f78b4"/>
     <use xlink:href="#mc02db60602" x="109.854704" y="315.833515" style="fill: #1f78b4; stroke: #1f78b4"/>
     <use xlink:href="#mc02db60602" x="105.98482" y="339.809232" style="fill: #1f78b4; stroke: #1f78b4"/>
     <use xlink:href="#mc02db60602" x="71.65839" y="375.82703" style="fill: #1f78b4; stroke: #1f78b4"/>
     <use xlink:href="#mc02db60602" x="153.610851" y="344.903323" style="fill: #1f78b4; stroke: #1f78b4"/>
     <use xlink:href="#mc02db60602" x="125.515347" y="382.309282" style="fill: #1f78b4; stroke: #1f78b4"/>
     <use xlink:href="#mc02db60602" x="178.874146" y="318.631723" style="fill: #1f78b4; stroke: #1f78b4"/>
     <use xlink:href="#mc02db60602" x="29.209767" y="390.140227" style="fill: #1f78b4; stroke: #1f78b4"/>
     <use xlink:href="#mc02db60602" x="181.090891" y="378.981449" style="fill: #1f78b4; stroke: #1f78b4"/>
     <use xlink:href="#mc02db60602" x="159.404653" y="404.559152" style="fill: #1f78b4; stroke: #1f78b4"/>
     <use xlink:href="#mc02db60602" x="206.977144" y="420.416834" style="fill: #1f78b4; stroke: #1f78b4"/>
     <use xlink:href="#mc02db60602" x="238.826597" y="448.34391" style="fill: #1f78b4; stroke: #1f78b4"/>
    </g>
   </g>
   <g id="text_3">
    <!-- Graph type: 3 -->
    <g transform="translate(92.557244 258.238125) scale(0.12 -0.12)">
     <defs>
      <path id="DejaVuSans-33" d="M 2597 2516 
Q 3050 2419 3304 2112 
Q 3559 1806 3559 1356 
Q 3559 666 3084 287 
Q 2609 -91 1734 -91 
Q 1441 -91 1130 -33 
Q 819 25 488 141 
L 488 750 
Q 750 597 1062 519 
Q 1375 441 1716 441 
Q 2309 441 2620 675 
Q 2931 909 2931 1356 
Q 2931 1769 2642 2001 
Q 2353 2234 1838 2234 
L 1294 2234 
L 1294 2753 
L 1863 2753 
Q 2328 2753 2575 2939 
Q 2822 3125 2822 3475 
Q 2822 3834 2567 4026 
Q 2313 4219 1838 4219 
Q 1578 4219 1281 4162 
Q 984 4106 628 3988 
L 628 4550 
Q 988 4650 1302 4700 
Q 1616 4750 1894 4750 
Q 2613 4750 3031 4423 
Q 3450 4097 3450 3541 
Q 3450 3153 3228 2886 
Q 3006 2619 2597 2516 
z
" transform="scale(0.015625)"/>
     </defs>
     <use xlink:href="#DejaVuSans-47"/>
     <use xlink:href="#DejaVuSans-72" x="77.490234"/>
     <use xlink:href="#DejaVuSans-61" x="118.603516"/>
     <use xlink:href="#DejaVuSans-70" x="179.882812"/>
     <use xlink:href="#DejaVuSans-68" x="243.359375"/>
     <use xlink:href="#DejaVuSans-20" x="306.738281"/>
     <use xlink:href="#DejaVuSans-74" x="338.525391"/>
     <use xlink:href="#DejaVuSans-79" x="377.734375"/>
     <use xlink:href="#DejaVuSans-70" x="436.914062"/>
     <use xlink:href="#DejaVuSans-65" x="500.390625"/>
     <use xlink:href="#DejaVuSans-3a" x="561.914062"/>
     <use xlink:href="#DejaVuSans-20" x="595.605469"/>
     <use xlink:href="#DejaVuSans-33" x="627.392578"/>
    </g>
   </g>
  </g>
  <g id="axes_4">
   <g id="LineCollection_4">
    <path d="M 333.573403 376.262813 
L 376.613807 396.276829 
" clip-path="url(#p33608f13e2)" style="fill: none; stroke: #000000"/>
    <path d="M 376.613807 396.276829 
L 436.903584 370.995809 
" clip-path="url(#p33608f13e2)" style="fill: none; stroke: #000000"/>
    <path d="M 376.613807 396.276829 
L 344.532657 448.34391 
" clip-path="url(#p33608f13e2)" style="fill: none; stroke: #000000"/>
    <path d="M 436.903584 370.995809 
L 466.443736 331.108771 
" clip-path="url(#p33608f13e2)" style="fill: none; stroke: #000000"/>
    <path d="M 436.903584 370.995809 
L 466.288735 376.224279 
" clip-path="url(#p33608f13e2)" style="fill: none; stroke: #000000"/>
    <path d="M 466.288735 376.224279 
L 466.443736 331.108771 
" clip-path="url(#p33608f13e2)" style="fill: none; stroke: #000000"/>
    <path d="M 466.288735 376.224279 
L 497.057346 392.095276 
" clip-path="url(#p33608f13e2)" style="fill: none; stroke: #000000"/>
    <path d="M 466.443736 331.108771 
L 513.511782 329.47943 
" clip-path="url(#p33608f13e2)" style="fill: none; stroke: #000000"/>
    <path d="M 466.443736 331.108771 
L 462.175026 281.73234 
" clip-path="url(#p33608f13e2)" style="fill: none; stroke: #000000"/>
    <path d="M 513.511782 329.47943 
L 539.993492 297.197052 
" clip-path="url(#p33608f13e2)" style="fill: none; stroke: #000000"/>
    <path d="M 513.511782 329.47943 
L 497.057346 392.095276 
" clip-path="url(#p33608f13e2)" style="fill: none; stroke: #000000"/>
    <path d="M 543.190233 436.934812 
L 497.057346 392.095276 
" clip-path="url(#p33608f13e2)" style="fill: none; stroke: #000000"/>
    <path d="M 497.057346 392.095276 
L 506.384142 447.156173 
" clip-path="url(#p33608f13e2)" style="fill: none; stroke: #000000"/>
   </g>
   <g id="PathCollection_4">
    <g clip-path="url(#p33608f13e2)">
     <use xlink:href="#mc02db60602" x="333.573403" y="376.262813" style="fill: #1f78b4; stroke: #1f78b4"/>
     <use xlink:href="#mc02db60602" x="376.613807" y="396.276829" style="fill: #1f78b4; stroke: #1f78b4"/>
     <use xlink:href="#mc02db60602" x="436.903584" y="370.995809" style="fill: #1f78b4; stroke: #1f78b4"/>
     <use xlink:href="#mc02db60602" x="344.532657" y="448.34391" style="fill: #1f78b4; stroke: #1f78b4"/>
     <use xlink:href="#mc02db60602" x="466.288735" y="376.224279" style="fill: #1f78b4; stroke: #1f78b4"/>
     <use xlink:href="#mc02db60602" x="466.443736" y="331.108771" style="fill: #1f78b4; stroke: #1f78b4"/>
     <use xlink:href="#mc02db60602" x="462.175026" y="281.73234" style="fill: #1f78b4; stroke: #1f78b4"/>
     <use xlink:href="#mc02db60602" x="513.511782" y="329.47943" style="fill: #1f78b4; stroke: #1f78b4"/>
     <use xlink:href="#mc02db60602" x="539.993492" y="297.197052" style="fill: #1f78b4; stroke: #1f78b4"/>
     <use xlink:href="#mc02db60602" x="543.190233" y="436.934812" style="fill: #1f78b4; stroke: #1f78b4"/>
     <use xlink:href="#mc02db60602" x="497.057346" y="392.095276" style="fill: #1f78b4; stroke: #1f78b4"/>
     <use xlink:href="#mc02db60602" x="506.384142" y="447.156173" style="fill: #1f78b4; stroke: #1f78b4"/>
    </g>
   </g>
   <g id="text_4">
    <!-- Graph type: 4 -->
    <g transform="translate(396.920881 258.238125) scale(0.12 -0.12)">
     <defs>
      <path id="DejaVuSans-34" d="M 2419 4116 
L 825 1625 
L 2419 1625 
L 2419 4116 
z
M 2253 4666 
L 3047 4666 
L 3047 1625 
L 3713 1625 
L 3713 1100 
L 3047 1100 
L 3047 0 
L 2419 0 
L 2419 1100 
L 313 1100 
L 313 1709 
L 2253 4666 
z
" transform="scale(0.015625)"/>
     </defs>
     <use xlink:href="#DejaVuSans-47"/>
     <use xlink:href="#DejaVuSans-72" x="77.490234"/>
     <use xlink:href="#DejaVuSans-61" x="118.603516"/>
     <use xlink:href="#DejaVuSans-70" x="179.882812"/>
     <use xlink:href="#DejaVuSans-68" x="243.359375"/>
     <use xlink:href="#DejaVuSans-20" x="306.738281"/>
     <use xlink:href="#DejaVuSans-74" x="338.525391"/>
     <use xlink:href="#DejaVuSans-79" x="377.734375"/>
     <use xlink:href="#DejaVuSans-70" x="436.914062"/>
     <use xlink:href="#DejaVuSans-65" x="500.390625"/>
     <use xlink:href="#DejaVuSans-3a" x="561.914062"/>
     <use xlink:href="#DejaVuSans-20" x="595.605469"/>
     <use xlink:href="#DejaVuSans-34" x="627.392578"/>
    </g>
   </g>
  </g>
 </g>
 <defs>
  <clipPath id="pae7a057dcf">
   <rect x="7.2" y="22.318125" width="253.636364" height="201.6"/>
  </clipPath>
  <clipPath id="p9a6259439d">
   <rect x="311.563636" y="22.318125" width="253.636364" height="201.6"/>
  </clipPath>
  <clipPath id="pc12ce051aa">
   <rect x="7.2" y="264.238125" width="253.636364" height="201.6"/>
  </clipPath>
  <clipPath id="p33608f13e2">
   <rect x="311.563636" y="264.238125" width="253.636364" height="201.6"/>
  </clipPath>
 </defs>
</svg>
