<?xml version="1.0" encoding="utf-8" standalone="no"?>
<!DOCTYPE svg PUBLIC "-//W3C//DTD SVG 1.1//EN"
  "http://www.w3.org/Graphics/SVG/1.1/DTD/svg11.dtd">
<svg xmlns:xlink="http://www.w3.org/1999/xlink" width="475.2pt" height="360pt" viewBox="0 0 475.2 360" xmlns="http://www.w3.org/2000/svg" version="1.1">
 <metadata>
  <rdf:RDF xmlns:dc="http://purl.org/dc/elements/1.1/" xmlns:cc="http://creativecommons.org/ns#" xmlns:rdf="http://www.w3.org/1999/02/22-rdf-syntax-ns#">
   <cc:Work>
    <dc:type rdf:resource="http://purl.org/dc/dcmitype/StillImage"/>
    <dc:date>2023-05-01T03:47:40.007916</dc:date>
    <dc:format>image/svg+xml</dc:format>
    <dc:creator>
     <cc:Agent>
      <dc:title>Matplotlib v3.7.1, https://matplotlib.org/</dc:title>
     </cc:Agent>
    </dc:creator>
   </cc:Work>
  </rdf:RDF>
 </metadata>
 <defs>
  <style type="text/css">*{stroke-linejoin: round; stroke-linecap: butt}</style>
 </defs>
 <g id="figure_1">
  <g id="patch_1">
   <path d="M 0 360 
L 475.2 360 
L 475.2 0 
L 0 0 
z
" style="fill: #ffffff"/>
  </g>
  <g id="axes_1">
   <g id="LineCollection_1">
    <path d="M 428.013223 323.43083 
L 316.814861 240.195817 
" clip-path="url(#p5a8af7dc36)" style="fill: none; stroke: #000000"/>
    <path d="M 316.814861 240.195817 
L 353.487351 179.564671 
" clip-path="url(#p5a8af7dc36)" style="fill: none; stroke: #000000"/>
    <path d="M 316.814861 240.195817 
L 234.622999 207.723106 
" clip-path="url(#p5a8af7dc36)" style="fill: none; stroke: #000000"/>
    <path d="M 353.487351 179.564671 
L 333.134922 104.36472 
" clip-path="url(#p5a8af7dc36)" style="fill: none; stroke: #000000"/>
    <path d="M 353.487351 179.564671 
L 234.622999 207.723106 
" clip-path="url(#p5a8af7dc36)" style="fill: none; stroke: #000000"/>
    <path d="M 333.134922 104.36472 
L 259.164782 50.229249 
" clip-path="url(#p5a8af7dc36)" style="fill: none; stroke: #000000"/>
    <path d="M 333.134922 104.36472 
L 177.779978 123.04634 
" clip-path="url(#p5a8af7dc36)" style="fill: none; stroke: #000000"/>
    <path d="M 120.359112 252.103467 
L 234.622999 207.723106 
" clip-path="url(#p5a8af7dc36)" style="fill: none; stroke: #000000"/>
    <path d="M 234.622999 207.723106 
L 177.779978 123.04634 
" clip-path="url(#p5a8af7dc36)" style="fill: none; stroke: #000000"/>
    <path d="M 259.164782 50.229249 
L 177.779978 123.04634 
" clip-path="url(#p5a8af7dc36)" style="fill: none; stroke: #000000"/>
    <path d="M 259.164782 50.229249 
L 259.164782 50.229249 
" clip-path="url(#p5a8af7dc36)" style="fill: none; stroke: #000000"/>
    <path d="M 177.779978 123.04634 
L 47.186777 88.180907 
" clip-path="url(#p5a8af7dc36)" style="fill: none; stroke: #000000"/>
   </g>
   <g id="patch_2">
    <path d="M 259.164782 22.909091 
C 289.139392 22.909091 289.139392 50.229249 259.164782 50.229249 
C 229.190171 50.229249 229.190171 22.909091 259.164782 22.909091 
" clip-path="url(#p5a8af7dc36)" style="fill: none; stroke: #000000; stroke-linecap: round"/>
   </g>
   <g id="text_1">
    <g id="patch_3">
     <path d="M 362.622923 284.276309 
L 372.81012 291.901704 
Q 375.211817 293.69944 377.009552 291.297743 
L 382.809122 283.54977 
Q 384.606858 281.148073 382.205161 279.350338 
L 372.017964 271.724942 
Q 369.616268 269.927207 367.818532 272.328904 
L 362.018962 280.076877 
Q 360.221227 282.478574 362.622923 284.276309 
z
" clip-path="url(#p5a8af7dc36)" style="fill: #ffffff; stroke: #ffffff; stroke-linejoin: miter"/>
    </g>
    <g clip-path="url(#p5a8af7dc36)">
     <!-- 87 -->
     <g transform="translate(365.666902 280.209686) rotate(-323.184142) scale(0.1 -0.1)">
      <defs>
       <path id="DejaVuSans-38" d="M 2034 2216 
Q 1584 2216 1326 1975 
Q 1069 1734 1069 1313 
Q 1069 891 1326 650 
Q 1584 409 2034 409 
Q 2484 409 2743 651 
Q 3003 894 3003 1313 
Q 3003 1734 2745 1975 
Q 2488 2216 2034 2216 
z
M 1403 2484 
Q 997 2584 770 2862 
Q 544 3141 544 3541 
Q 544 4100 942 4425 
Q 1341 4750 2034 4750 
Q 2731 4750 3128 4425 
Q 3525 4100 3525 3541 
Q 3525 3141 3298 2862 
Q 3072 2584 2669 2484 
Q 3125 2378 3379 2068 
Q 3634 1759 3634 1313 
Q 3634 634 3220 271 
Q 2806 -91 2034 -91 
Q 1263 -91 848 271 
Q 434 634 434 1313 
Q 434 1759 690 2068 
Q 947 2378 1403 2484 
z
M 1172 3481 
Q 1172 3119 1398 2916 
Q 1625 2713 2034 2713 
Q 2441 2713 2670 2916 
Q 2900 3119 2900 3481 
Q 2900 3844 2670 4047 
Q 2441 4250 2034 4250 
Q 1625 4250 1398 4047 
Q 1172 3844 1172 3481 
z
" transform="scale(0.015625)"/>
       <path id="DejaVuSans-37" d="M 525 4666 
L 3525 4666 
L 3525 4397 
L 1831 0 
L 1172 0 
L 2766 4134 
L 525 4134 
L 525 4666 
z
" transform="scale(0.015625)"/>
      </defs>
      <use xlink:href="#DejaVuSans-38"/>
      <use xlink:href="#DejaVuSans-37" x="63.623047"/>
     </g>
    </g>
   </g>
   <g id="text_2">
    <g id="patch_4">
     <path d="M 336.91938 222.103471 
L 346.797949 205.771094 
Q 348.350573 203.204119 345.783598 201.651495 
L 337.50243 196.642666 
Q 334.935456 195.090043 333.382832 197.657017 
L 323.504263 213.989394 
Q 321.951639 216.556369 324.518614 218.108993 
L 332.799782 223.117822 
Q 335.366757 224.670445 336.91938 222.103471 
z
" clip-path="url(#p5a8af7dc36)" style="fill: #ffffff; stroke: #ffffff; stroke-linejoin: miter"/>
    </g>
    <g clip-path="url(#p5a8af7dc36)">
     <!-- 146 -->
     <g transform="translate(332.572904 219.474523) rotate(-58.832533) scale(0.1 -0.1)">
      <defs>
       <path id="DejaVuSans-31" d="M 794 531 
L 1825 531 
L 1825 4091 
L 703 3866 
L 703 4441 
L 1819 4666 
L 2450 4666 
L 2450 531 
L 3481 531 
L 3481 0 
L 794 0 
L 794 531 
z
" transform="scale(0.015625)"/>
       <path id="DejaVuSans-34" d="M 2419 4116 
L 825 1625 
L 2419 1625 
L 2419 4116 
z
M 2253 4666 
L 3047 4666 
L 3047 1625 
L 3713 1625 
L 3713 1100 
L 3047 1100 
L 3047 0 
L 2419 0 
L 2419 1100 
L 313 1100 
L 313 1709 
L 2253 4666 
z
" transform="scale(0.015625)"/>
       <path id="DejaVuSans-36" d="M 2113 2584 
Q 1688 2584 1439 2293 
Q 1191 2003 1191 1497 
Q 1191 994 1439 701 
Q 1688 409 2113 409 
Q 2538 409 2786 701 
Q 3034 994 3034 1497 
Q 3034 2003 2786 2293 
Q 2538 2584 2113 2584 
z
M 3366 4563 
L 3366 3988 
Q 3128 4100 2886 4159 
Q 2644 4219 2406 4219 
Q 1781 4219 1451 3797 
Q 1122 3375 1075 2522 
Q 1259 2794 1537 2939 
Q 1816 3084 2150 3084 
Q 2853 3084 3261 2657 
Q 3669 2231 3669 1497 
Q 3669 778 3244 343 
Q 2819 -91 2113 -91 
Q 1303 -91 875 529 
Q 447 1150 447 2328 
Q 447 3434 972 4092 
Q 1497 4750 2381 4750 
Q 2619 4750 2861 4703 
Q 3103 4656 3366 4563 
z
" transform="scale(0.015625)"/>
      </defs>
      <use xlink:href="#DejaVuSans-31"/>
      <use xlink:href="#DejaVuSans-34" x="63.623047"/>
      <use xlink:href="#DejaVuSans-36" x="127.246094"/>
     </g>
    </g>
   </g>
   <g id="text_3">
    <g id="patch_5">
     <path d="M 263.962382 227.743327 
L 281.714613 234.756954 
Q 284.504747 235.859292 285.607086 233.069158 
L 289.163275 224.068068 
Q 290.265613 221.277933 287.475478 220.175595 
L 269.723248 213.161968 
Q 266.933113 212.05963 265.830775 214.849764 
L 262.274586 223.850855 
Q 261.172248 226.640989 263.962382 227.743327 
z
" clip-path="url(#p5a8af7dc36)" style="fill: #ffffff; stroke: #ffffff; stroke-linejoin: miter"/>
    </g>
    <g clip-path="url(#p5a8af7dc36)">
     <!-- 500 -->
     <g transform="translate(265.828893 223.01899) rotate(-338.441804) scale(0.1 -0.1)">
      <defs>
       <path id="DejaVuSans-35" d="M 691 4666 
L 3169 4666 
L 3169 4134 
L 1269 4134 
L 1269 2991 
Q 1406 3038 1543 3061 
Q 1681 3084 1819 3084 
Q 2600 3084 3056 2656 
Q 3513 2228 3513 1497 
Q 3513 744 3044 326 
Q 2575 -91 1722 -91 
Q 1428 -91 1123 -41 
Q 819 9 494 109 
L 494 744 
Q 775 591 1075 516 
Q 1375 441 1709 441 
Q 2250 441 2565 725 
Q 2881 1009 2881 1497 
Q 2881 1984 2565 2268 
Q 2250 2553 1709 2553 
Q 1456 2553 1204 2497 
Q 953 2441 691 2322 
L 691 4666 
z
" transform="scale(0.015625)"/>
       <path id="DejaVuSans-30" d="M 2034 4250 
Q 1547 4250 1301 3770 
Q 1056 3291 1056 2328 
Q 1056 1369 1301 889 
Q 1547 409 2034 409 
Q 2525 409 2770 889 
Q 3016 1369 3016 2328 
Q 3016 3291 2770 3770 
Q 2525 4250 2034 4250 
z
M 2034 4750 
Q 2819 4750 3233 4129 
Q 3647 3509 3647 2328 
Q 3647 1150 3233 529 
Q 2819 -91 2034 -91 
Q 1250 -91 836 529 
Q 422 1150 422 2328 
Q 422 3509 836 4129 
Q 1250 4750 2034 4750 
z
" transform="scale(0.015625)"/>
      </defs>
      <use xlink:href="#DejaVuSans-35"/>
      <use xlink:href="#DejaVuSans-30" x="63.623047"/>
      <use xlink:href="#DejaVuSans-30" x="127.246094"/>
     </g>
    </g>
   </g>
   <g id="text_4">
    <g id="patch_6">
     <path d="M 333.251045 134.800296 
L 338.237566 153.224933 
Q 339.021302 156.12075 341.917119 155.337014 
L 351.259146 152.808649 
Q 354.154964 152.024913 353.371228 149.129096 
L 348.384707 130.704458 
Q 347.600971 127.808641 344.705153 128.592377 
L 335.363126 131.120742 
Q 332.467309 131.904478 333.251045 134.800296 
z
" clip-path="url(#p5a8af7dc36)" style="fill: #ffffff; stroke: #ffffff; stroke-linejoin: miter"/>
    </g>
    <g clip-path="url(#p5a8af7dc36)">
     <!-- 120 -->
     <g transform="translate(338.154327 133.473251) rotate(-285.143971) scale(0.1 -0.1)">
      <defs>
       <path id="DejaVuSans-32" d="M 1228 531 
L 3431 531 
L 3431 0 
L 469 0 
L 469 531 
Q 828 903 1448 1529 
Q 2069 2156 2228 2338 
Q 2531 2678 2651 2914 
Q 2772 3150 2772 3378 
Q 2772 3750 2511 3984 
Q 2250 4219 1831 4219 
Q 1534 4219 1204 4116 
Q 875 4013 500 3803 
L 500 4441 
Q 881 4594 1212 4672 
Q 1544 4750 1819 4750 
Q 2544 4750 2975 4387 
Q 3406 4025 3406 3419 
Q 3406 3131 3298 2873 
Q 3191 2616 2906 2266 
Q 2828 2175 2409 1742 
Q 1991 1309 1228 531 
z
" transform="scale(0.015625)"/>
      </defs>
      <use xlink:href="#DejaVuSans-31"/>
      <use xlink:href="#DejaVuSans-32" x="63.623047"/>
      <use xlink:href="#DejaVuSans-30" x="127.246094"/>
     </g>
    </g>
   </g>
   <g id="text_5">
    <g id="patch_7">
     <path d="M 286.575478 203.471818 
L 305.148925 199.071851 
Q 308.068131 198.380304 307.376584 195.461098 
L 305.145625 186.043618 
Q 304.454078 183.124412 301.534873 183.815959 
L 282.961425 188.215926 
Q 280.042219 188.907473 280.733766 191.826679 
L 282.964725 201.244159 
Q 283.656272 204.163364 286.575478 203.471818 
z
" clip-path="url(#p5a8af7dc36)" style="fill: #ffffff; stroke: #ffffff; stroke-linejoin: miter"/>
    </g>
    <g clip-path="url(#p5a8af7dc36)">
     <!-- 154 -->
     <g transform="translate(285.40453 198.528933) rotate(-13.32743) scale(0.1 -0.1)">
      <use xlink:href="#DejaVuSans-31"/>
      <use xlink:href="#DejaVuSans-35" x="63.623047"/>
      <use xlink:href="#DejaVuSans-34" x="127.246094"/>
     </g>
    </g>
   </g>
   <g id="text_6">
    <g id="patch_8">
     <path d="M 286.385828 79.865282 
L 296.654563 87.380514 
Q 299.075482 89.152278 300.847246 86.731359 
L 306.563031 78.921371 
Q 308.334795 76.500451 305.913875 74.728687 
L 295.645141 67.213455 
Q 293.224221 65.441691 291.452457 67.86261 
L 285.736672 75.672598 
Q 283.964908 78.093518 286.385828 79.865282 
z
" clip-path="url(#p5a8af7dc36)" style="fill: #ffffff; stroke: #ffffff; stroke-linejoin: miter"/>
    </g>
    <g clip-path="url(#p5a8af7dc36)">
     <!-- 97 -->
     <g transform="translate(289.385831 75.76611) rotate(-323.801255) scale(0.1 -0.1)">
      <defs>
       <path id="DejaVuSans-39" d="M 703 97 
L 703 672 
Q 941 559 1184 500 
Q 1428 441 1663 441 
Q 2288 441 2617 861 
Q 2947 1281 2994 2138 
Q 2813 1869 2534 1725 
Q 2256 1581 1919 1581 
Q 1219 1581 811 2004 
Q 403 2428 403 3163 
Q 403 3881 828 4315 
Q 1253 4750 1959 4750 
Q 2769 4750 3195 4129 
Q 3622 3509 3622 2328 
Q 3622 1225 3098 567 
Q 2575 -91 1691 -91 
Q 1453 -91 1209 -44 
Q 966 3 703 97 
z
M 1959 2075 
Q 2384 2075 2632 2365 
Q 2881 2656 2881 3163 
Q 2881 3666 2632 3958 
Q 2384 4250 1959 4250 
Q 1534 4250 1286 3958 
Q 1038 3666 1038 3163 
Q 1038 2656 1286 2365 
Q 1534 2075 1959 2075 
z
" transform="scale(0.015625)"/>
      </defs>
      <use xlink:href="#DejaVuSans-39"/>
      <use xlink:href="#DejaVuSans-37" x="63.623047"/>
     </g>
    </g>
   </g>
   <g id="text_7">
    <g id="patch_9">
     <path d="M 246.917877 122.627961 
L 265.86885 120.349084 
Q 268.847392 119.99091 268.489219 117.012368 
L 267.333737 107.403468 
Q 266.975564 104.424926 263.997022 104.783099 
L 245.046049 107.061977 
Q 242.067507 107.42015 242.42568 110.398692 
L 243.581162 120.007592 
Q 243.939336 122.986134 246.917877 122.627961 
z
" clip-path="url(#p5a8af7dc36)" style="fill: #ffffff; stroke: #ffffff; stroke-linejoin: miter"/>
    </g>
    <g clip-path="url(#p5a8af7dc36)">
     <!-- 103 -->
     <g transform="translate(246.311408 117.584607) rotate(-6.856962) scale(0.1 -0.1)">
      <defs>
       <path id="DejaVuSans-33" d="M 2597 2516 
Q 3050 2419 3304 2112 
Q 3559 1806 3559 1356 
Q 3559 666 3084 287 
Q 2609 -91 1734 -91 
Q 1441 -91 1130 -33 
Q 819 25 488 141 
L 488 750 
Q 750 597 1062 519 
Q 1375 441 1716 441 
Q 2309 441 2620 675 
Q 2931 909 2931 1356 
Q 2931 1769 2642 2001 
Q 2353 2234 1838 2234 
L 1294 2234 
L 1294 2753 
L 1863 2753 
Q 2328 2753 2575 2939 
Q 2822 3125 2822 3475 
Q 2822 3834 2567 4026 
Q 2313 4219 1838 4219 
Q 1578 4219 1281 4162 
Q 984 4106 628 3988 
L 628 4550 
Q 988 4650 1302 4700 
Q 1616 4750 1894 4750 
Q 2613 4750 3031 4423 
Q 3450 4097 3450 3541 
Q 3450 3153 3228 2886 
Q 3006 2619 2597 2516 
z
" transform="scale(0.015625)"/>
      </defs>
      <use xlink:href="#DejaVuSans-31"/>
      <use xlink:href="#DejaVuSans-30" x="63.623047"/>
      <use xlink:href="#DejaVuSans-33" x="127.246094"/>
     </g>
    </g>
   </g>
   <g id="text_8">
    <g id="patch_10">
     <path d="M 171.432925 240.675866 
L 189.225487 233.765193 
Q 192.02196 232.679036 190.935803 229.882563 
L 187.431816 220.861023 
Q 186.345659 218.06455 183.549186 219.150707 
L 165.756624 226.061379 
Q 162.960151 227.147536 164.046308 229.94401 
L 167.550295 238.965549 
Q 168.636452 241.762023 171.432925 240.675866 
z
" clip-path="url(#p5a8af7dc36)" style="fill: #ffffff; stroke: #ffffff; stroke-linejoin: miter"/>
    </g>
    <g clip-path="url(#p5a8af7dc36)">
     <!-- 191 -->
     <g transform="translate(169.593813 235.940796) rotate(-21.226287) scale(0.1 -0.1)">
      <use xlink:href="#DejaVuSans-31"/>
      <use xlink:href="#DejaVuSans-39" x="63.623047"/>
      <use xlink:href="#DejaVuSans-31" x="127.246094"/>
     </g>
    </g>
   </g>
   <g id="text_9">
    <g id="patch_11">
     <path d="M 194.37365 161.829966 
L 205.012207 177.677797 
Q 206.684279 180.168616 209.175097 178.496544 
L 217.210581 173.10237 
Q 219.701399 171.430298 218.029327 168.93948 
L 207.39077 153.091649 
Q 205.718698 150.60083 203.22788 152.272902 
L 195.192396 157.667076 
Q 192.701578 159.339148 194.37365 161.829966 
z
" clip-path="url(#p5a8af7dc36)" style="fill: #ffffff; stroke: #ffffff; stroke-linejoin: miter"/>
    </g>
    <g clip-path="url(#p5a8af7dc36)">
     <!-- 199 -->
     <g transform="translate(198.591176 158.998765) rotate(-303.873233) scale(0.1 -0.1)">
      <use xlink:href="#DejaVuSans-31"/>
      <use xlink:href="#DejaVuSans-39" x="63.623047"/>
      <use xlink:href="#DejaVuSans-39" x="127.246094"/>
     </g>
    </g>
   </g>
   <g id="text_10">
    <g id="patch_12">
     <path d="M 218.957767 96.722273 
L 228.441014 88.237366 
Q 230.67675 86.236995 228.676379 84.001259 
L 222.223099 76.788681 
Q 220.222728 74.552945 217.986992 76.553316 
L 208.503745 85.038223 
Q 206.268009 87.038594 208.26838 89.27433 
L 214.72166 96.486908 
Q 216.722031 98.722644 218.957767 96.722273 
z
" clip-path="url(#p5a8af7dc36)" style="fill: #ffffff; stroke: #ffffff; stroke-linejoin: miter"/>
    </g>
    <g clip-path="url(#p5a8af7dc36)">
     <!-- 91 -->
     <g transform="translate(215.570681 92.93666) rotate(-41.819821) scale(0.1 -0.1)">
      <use xlink:href="#DejaVuSans-39"/>
      <use xlink:href="#DejaVuSans-31" x="63.623047"/>
     </g>
    </g>
   </g>
   <g id="text_11">
    <g id="patch_13">
     <path d="M 249.621032 58.068312 
L 268.708532 58.068312 
Q 271.708532 58.068312 271.708532 55.068312 
L 271.708532 45.390187 
Q 271.708532 42.390187 268.708532 42.390187 
L 249.621032 42.390187 
Q 246.621032 42.390187 246.621032 45.390187 
L 246.621032 55.068312 
Q 246.621032 58.068312 249.621032 58.068312 
z
" clip-path="url(#p5a8af7dc36)" style="fill: #ffffff; stroke: #ffffff; stroke-linejoin: miter"/>
    </g>
    <g clip-path="url(#p5a8af7dc36)">
     <!-- 715 -->
     <g transform="translate(249.621032 52.988624) scale(0.1 -0.1)">
      <use xlink:href="#DejaVuSans-37"/>
      <use xlink:href="#DejaVuSans-31" x="63.623047"/>
      <use xlink:href="#DejaVuSans-35" x="127.246094"/>
     </g>
    </g>
   </g>
   <g id="text_12">
    <g id="patch_14">
     <path d="M 101.240556 110.725671 
L 119.682138 115.649156 
Q 122.580618 116.422985 123.354447 113.524505 
L 125.850851 104.173886 
Q 126.624679 101.275406 123.726199 100.501577 
L 105.284617 95.578091 
Q 102.386137 94.804262 101.612308 97.702743 
L 99.115904 107.053362 
Q 98.342075 109.951842 101.240556 110.725671 
z
" clip-path="url(#p5a8af7dc36)" style="fill: #ffffff; stroke: #ffffff; stroke-linejoin: miter"/>
    </g>
    <g clip-path="url(#p5a8af7dc36)">
     <!-- 182 -->
     <g transform="translate(102.550825 105.817879) rotate(-345.051963) scale(0.1 -0.1)">
      <use xlink:href="#DejaVuSans-31"/>
      <use xlink:href="#DejaVuSans-38" x="63.623047"/>
      <use xlink:href="#DejaVuSans-32" x="127.246094"/>
     </g>
    </g>
   </g>
   <g id="PathCollection_1">
    <defs>
     <path id="m0ea4d668ba" d="M 0 8.660254 
C 2.296726 8.660254 4.499694 7.747755 6.123724 6.123724 
C 7.747755 4.499694 8.660254 2.296726 8.660254 0 
C 8.660254 -2.296726 7.747755 -4.499694 6.123724 -6.123724 
C 4.499694 -7.747755 2.296726 -8.660254 0 -8.660254 
C -2.296726 -8.660254 -4.499694 -7.747755 -6.123724 -6.123724 
C -7.747755 -4.499694 -8.660254 -2.296726 -8.660254 0 
C -8.660254 2.296726 -7.747755 4.499694 -6.123724 6.123724 
C -4.499694 7.747755 -2.296726 8.660254 0 8.660254 
z
" style="stroke: #1f78b4"/>
    </defs>
    <g clip-path="url(#p5a8af7dc36)">
     <use xlink:href="#m0ea4d668ba" x="428.013223" y="323.43083" style="fill: #1f78b4; stroke: #1f78b4"/>
     <use xlink:href="#m0ea4d668ba" x="316.814861" y="240.195817" style="fill: #1f78b4; stroke: #1f78b4"/>
     <use xlink:href="#m0ea4d668ba" x="353.487351" y="179.564671" style="fill: #1f78b4; stroke: #1f78b4"/>
     <use xlink:href="#m0ea4d668ba" x="333.134922" y="104.36472" style="fill: #1f78b4; stroke: #1f78b4"/>
     <use xlink:href="#m0ea4d668ba" x="120.359112" y="252.103467" style="fill: #1f78b4; stroke: #1f78b4"/>
     <use xlink:href="#m0ea4d668ba" x="234.622999" y="207.723106" style="fill: #1f78b4; stroke: #1f78b4"/>
     <use xlink:href="#m0ea4d668ba" x="259.164782" y="50.229249" style="fill: #1f78b4; stroke: #1f78b4"/>
     <use xlink:href="#m0ea4d668ba" x="177.779978" y="123.04634" style="fill: #1f78b4; stroke: #1f78b4"/>
     <use xlink:href="#m0ea4d668ba" x="47.186777" y="88.180907" style="fill: #1f78b4; stroke: #1f78b4"/>
    </g>
   </g>
  </g>
 </g>
 <defs>
  <clipPath id="p5a8af7dc36">
   <rect x="7.2" y="7.2" width="460.8" height="345.6"/>
  </clipPath>
 </defs>
</svg>
